<svg height="512" viewBox="0 0 512 512" width="512" xmlns="http://www.w3.org/2000/svg"><g id="FilledOutline"><rect fill="#0093ba" height="464" rx="24" width="288" x="112" y="24"/><path d="m288 192h-112l-16 16-16-16h-80v-96h224z" fill="#ffc119"/><path d="m448 240h-88l-16 16-16-16h-104v-96h224z" fill="#88bf40"/><path d="m120 48a16.019 16.019 0 0 1 16-16h240a16.019 16.019 0 0 1 16 16v72h16v-72a32.036 32.036 0 0 0 -32-32h-240a32.036 32.036 0 0 0 -32 32v24h16z"/><path d="m392 464a16.019 16.019 0 0 1 -16 16h-240a16.019 16.019 0 0 1 -16-16v-248h-16v248a32.036 32.036 0 0 0 32 32h240a32.036 32.036 0 0 0 32-32v-200h-16z"/><path d="m232 48h16v16h-16z"/><path d="m264 48h16v16h-16z"/><path d="m248 448h16v16h-16z"/><path d="m154.343 213.657a8 8 0 0 0 11.314 0l13.656-13.657h20.687v-16h-24a8 8 0 0 0 -5.657 2.343l-10.343 10.344-10.343-10.344a8 8 0 0 0 -5.657-2.343h-72v-80h208v16h16v-24a8 8 0 0 0 -8-8h-224a8 8 0 0 0 -8 8v96a8 8 0 0 0 8 8h76.687z"/><path d="m448 136h-224a8 8 0 0 0 -8 8v96a8 8 0 0 0 8 8h100.687l13.656 13.657a8 8 0 0 0 11.314 0l13.656-13.657h84.687a8 8 0 0 0 8-8v-96a8 8 0 0 0 -8-8zm-8 96h-80a8 8 0 0 0 -5.657 2.343l-10.343 10.344-10.343-10.344a8 8 0 0 0 -5.657-2.343h-96v-80h208z"/><path d="m264 168h16v16h-16z"/><path d="m296 168h128v16h-128z"/><path d="m248 200h176v16h-176z"/><path d="m104 120h16v16h-16z"/><path d="m136 120h64v16h-64z"/><path d="m88 152h112v16h-112z"/><path d="m312 400v-8h8a24.028 24.028 0 0 0 24-24v-16a24.028 24.028 0 0 0 -24-24h-8.581a56 56 0 0 0 -110.85 0h-8.569a24.028 24.028 0 0 0 -24 24v16a24.028 24.028 0 0 0 24 24h16a8 8 0 0 0 8-8v-48a40 40 0 0 1 80 0v64a8.009 8.009 0 0 1 -8 8h-32v16h32a24.028 24.028 0 0 0 24-24zm-112-24h-8a8.009 8.009 0 0 1 -8-8v-16a8.009 8.009 0 0 1 8-8h8zm128-24v16a8.009 8.009 0 0 1 -8 8h-8v-32h8a8.009 8.009 0 0 1 8 8z"/></g></svg>